<svg width="18" height="20" viewBox="0 0 18 20" fill="none" xmlns="http://www.w3.org/2000/svg">
<path fill-rule="evenodd" clip-rule="evenodd" d="M9.03 3.98276e-05C11.29 0.0100398 13.45 0.91004 15.03 2.49004C16.62 4.08004 17.51 6.23004 17.5 8.46004V8.51004C17.44 11.54 15.74 14.33 13.62 16.51C12.42 17.74 11.09 18.83 9.64 19.75C9.25 20.08 8.68 20.08 8.29 19.75C6.14 18.35 4.24 16.59 2.7 14.54C1.35 12.76 0.58 10.62 0.5 8.39004C0.52 3.74004 4.34 -0.00996017 9.03 3.98276e-05ZM9.03 11.26C9.74 11.26 10.42 10.99 10.92 10.5C11.44 9.99004 11.731 9.31104 11.731 8.60004C11.731 7.12004 10.52 5.93004 9.03 5.93004C7.54 5.93004 6.34 7.12004 6.34 8.60004C6.34 10.061 7.52 11.24 9 11.26H9.03Z" fill="#B69D74"/>
<path fill-rule="evenodd" clip-rule="evenodd" d="M9.03 3.98276e-05C11.29 0.0100398 13.45 0.91004 15.03 2.49004C16.62 4.08004 17.51 6.23004 17.5 8.46004V8.51004C17.44 11.54 15.74 14.33 13.62 16.51C12.42 17.74 11.09 18.83 9.64 19.75C9.25 20.08 8.68 20.08 8.29 19.75C6.14 18.35 4.24 16.59 2.7 14.54C1.35 12.76 0.58 10.62 0.5 8.39004C0.52 3.74004 4.34 -0.00996017 9.03 3.98276e-05ZM9.03 11.26C9.74 11.26 10.42 10.99 10.92 10.5C11.44 9.99004 11.731 9.31104 11.731 8.60004C11.731 7.12004 10.52 5.93004 9.03 5.93004C7.54 5.93004 6.34 7.12004 6.34 8.60004C6.34 10.061 7.52 11.24 9 11.26H9.03Z" fill="black" fill-opacity="0.2"/>
</svg>
