<svg width="96" height="96" viewBox="0 0 96 96" fill="none" xmlns="http://www.w3.org/2000/svg">
<path d="M60.292 53.8825L59.7882 56.8194C59.742 57.0882 59.8526 57.3599 60.0731 57.5202C60.2937 57.6804 60.586 57.7017 60.8275 57.5747L63.4653 56.1881L66.1029 57.5747C66.2077 57.6298 66.3222 57.6569 66.4361 57.6569C66.5847 57.6569 66.7325 57.6108 66.8573 57.5201C67.0779 57.3598 67.1884 57.0882 67.1422 56.8194L66.6385 53.8824L68.7724 51.8023C68.9677 51.612 69.0379 51.3273 68.9536 51.068C68.8694 50.8086 68.6452 50.6196 68.3753 50.5804L65.4264 50.1518L64.1076 47.4797C63.9868 47.2352 63.7378 47.0803 63.4651 47.0803C63.1924 47.0803 62.9434 47.2352 62.8226 47.4797L61.5036 50.1518L58.5547 50.5804C58.285 50.6196 58.0607 50.8087 57.9765 51.068C57.8922 51.3272 57.9625 51.6119 58.1577 51.8023L60.292 53.8825ZM62.0827 51.5156C62.316 51.4817 62.5177 51.3351 62.622 51.1236L63.4653 49.4153L64.3083 51.1236C64.4127 51.3351 64.6144 51.4816 64.8476 51.5156L66.7329 51.7895L65.3687 53.1194C65.1998 53.284 65.1228 53.5211 65.1628 53.7535L65.4847 55.631L63.7986 54.7446C63.6942 54.6897 63.5798 54.6623 63.4653 54.6623C63.3508 54.6623 63.2363 54.6897 63.1319 54.7446L61.4457 55.631L61.7678 53.7536C61.8077 53.5211 61.7307 53.284 61.5619 53.1193L60.1977 51.7895L62.0827 51.5156Z" fill="#B69D74"/>
<path d="M60.292 53.8825L59.7882 56.8194C59.742 57.0882 59.8526 57.3599 60.0731 57.5202C60.2937 57.6804 60.586 57.7017 60.8275 57.5747L63.4653 56.1881L66.1029 57.5747C66.2077 57.6298 66.3222 57.6569 66.4361 57.6569C66.5847 57.6569 66.7325 57.6108 66.8573 57.5201C67.0779 57.3598 67.1884 57.0882 67.1422 56.8194L66.6385 53.8824L68.7724 51.8023C68.9677 51.612 69.0379 51.3273 68.9536 51.068C68.8694 50.8086 68.6452 50.6196 68.3753 50.5804L65.4264 50.1518L64.1076 47.4797C63.9868 47.2352 63.7378 47.0803 63.4651 47.0803C63.1924 47.0803 62.9434 47.2352 62.8226 47.4797L61.5036 50.1518L58.5547 50.5804C58.285 50.6196 58.0607 50.8087 57.9765 51.068C57.8922 51.3272 57.9625 51.6119 58.1577 51.8023L60.292 53.8825ZM62.0827 51.5156C62.316 51.4817 62.5177 51.3351 62.622 51.1236L63.4653 49.4153L64.3083 51.1236C64.4127 51.3351 64.6144 51.4816 64.8476 51.5156L66.7329 51.7895L65.3687 53.1194C65.1998 53.284 65.1228 53.5211 65.1628 53.7535L65.4847 55.631L63.7986 54.7446C63.6942 54.6897 63.5798 54.6623 63.4653 54.6623C63.3508 54.6623 63.2363 54.6897 63.1319 54.7446L61.4457 55.631L61.7678 53.7536C61.8077 53.5211 61.7307 53.284 61.5619 53.1193L60.1977 51.7895L62.0827 51.5156Z" fill="black" fill-opacity="0.2"/>
<path d="M30.108 46.7048L29.6042 49.6417C29.5581 49.9105 29.6686 50.1822 29.8891 50.3424C30.1097 50.5027 30.4021 50.524 30.6435 50.397L33.2813 49.0103L35.9189 50.397C36.0237 50.4521 36.1382 50.4792 36.2521 50.4792C36.4007 50.4792 36.5485 50.4331 36.6733 50.3423C36.8939 50.1821 37.0044 49.9105 36.9582 49.6417L36.4545 46.7047L38.5884 44.6246C38.7837 44.4343 38.8539 44.1496 38.7696 43.8902C38.6854 43.6309 38.4612 43.4419 38.1913 43.4027L35.2424 42.9742L33.9236 40.302C33.8028 40.0574 33.5538 39.9026 33.2811 39.9026C33.0084 39.9026 32.7594 40.0574 32.6386 40.302L31.3196 42.9741L28.3708 43.4027C28.101 43.4419 27.8767 43.631 27.7925 43.8902C27.7082 44.1495 27.7785 44.4342 27.9737 44.6246L30.108 46.7048ZM31.8987 44.3379C32.132 44.3041 32.3337 44.1575 32.438 43.946L33.2813 42.2376L34.1243 43.946C34.2287 44.1575 34.4304 44.304 34.6636 44.3379L36.5489 44.6119L35.1847 45.9418C35.0158 46.1064 34.9388 46.3434 34.9788 46.5758L35.3007 48.4534L33.6146 47.5669C33.5102 47.5121 33.3958 47.4847 33.2813 47.4847C33.1669 47.4847 33.0523 47.5121 32.9479 47.5669L31.2617 48.4534L31.5838 46.5759C31.6237 46.3434 31.5467 46.1064 31.3779 45.9418L30.0137 44.6119L31.8987 44.3379Z" fill="#B69D74"/>
<path d="M30.108 46.7048L29.6042 49.6417C29.5581 49.9105 29.6686 50.1822 29.8891 50.3424C30.1097 50.5027 30.4021 50.524 30.6435 50.397L33.2813 49.0103L35.9189 50.397C36.0237 50.4521 36.1382 50.4792 36.2521 50.4792C36.4007 50.4792 36.5485 50.4331 36.6733 50.3423C36.8939 50.1821 37.0044 49.9105 36.9582 49.6417L36.4545 46.7047L38.5884 44.6246C38.7837 44.4343 38.8539 44.1496 38.7696 43.8902C38.6854 43.6309 38.4612 43.4419 38.1913 43.4027L35.2424 42.9742L33.9236 40.302C33.8028 40.0574 33.5538 39.9026 33.2811 39.9026C33.0084 39.9026 32.7594 40.0574 32.6386 40.302L31.3196 42.9741L28.3708 43.4027C28.101 43.4419 27.8767 43.631 27.7925 43.8902C27.7082 44.1495 27.7785 44.4342 27.9737 44.6246L30.108 46.7048ZM31.8987 44.3379C32.132 44.3041 32.3337 44.1575 32.438 43.946L33.2813 42.2376L34.1243 43.946C34.2287 44.1575 34.4304 44.304 34.6636 44.3379L36.5489 44.6119L35.1847 45.9418C35.0158 46.1064 34.9388 46.3434 34.9788 46.5758L35.3007 48.4534L33.6146 47.5669C33.5102 47.5121 33.3958 47.4847 33.2813 47.4847C33.1669 47.4847 33.0523 47.5121 32.9479 47.5669L31.2617 48.4534L31.5838 46.5759C31.6237 46.3434 31.5467 46.1064 31.3779 45.9418L30.0137 44.6119L31.8987 44.3379Z" fill="black" fill-opacity="0.2"/>
<path d="M44.3752 28.7525V29.6233C44.3752 31.6681 45.8617 33.3711 47.8105 33.7117V35.7211C46.0549 36.0069 44.6632 37.3876 44.3603 39.1373H43.3576C42.4336 39.1373 42.4336 40.5701 43.3576 40.5701H53.6427C54.5666 40.5701 54.5666 39.1373 53.6427 39.1373H52.6107C52.3125 37.4153 50.9597 36.0511 49.2434 35.7359V33.7116C51.1922 33.3711 52.6786 31.668 52.6786 29.6232V28.7449C53.5932 28.6219 54.3201 28.2545 54.8443 27.647C55.905 26.4176 55.6624 24.6845 55.6516 24.6114C55.5995 24.2602 55.298 24 54.9429 24H51.9621H51.9277H45.0917C45.0885 24 45.0854 24.0005 45.0822 24.0005C45.0789 24.0005 45.0759 24 45.0726 24H42.0574C41.7022 24 41.4008 24.2602 41.3487 24.6114C41.3379 24.6846 41.0954 26.4176 42.1561 27.647C42.6904 28.2665 43.4352 28.6369 44.3752 28.7525ZM51.1459 39.1374H45.8249C46.1411 37.9646 47.2141 37.0988 48.4855 37.0988C49.7568 37.0988 50.8298 37.9645 51.1459 39.1374ZM53.7593 26.7111C53.5066 27.0041 53.1444 27.1984 52.6785 27.2927V25.4328H54.2387C54.205 25.8234 54.0909 26.3267 53.7593 26.7111ZM45.808 25.4328H51.2457V27.9923C51.2426 28.0196 51.2405 28.0473 51.2405 28.0756C51.2405 28.1039 51.2425 28.1315 51.2457 28.1589V29.6233C51.2457 31.1224 50.0261 32.3421 48.5269 32.3421C47.0277 32.3421 45.808 31.1224 45.808 29.6233V25.4328ZM44.3752 25.4328V27.3027C43.8867 27.2133 43.5079 27.0177 43.2459 26.7169C42.9106 26.3322 42.7956 25.8255 42.7616 25.4328H44.3752Z" fill="#B69D74"/>
<path d="M44.3752 28.7525V29.6233C44.3752 31.6681 45.8617 33.3711 47.8105 33.7117V35.7211C46.0549 36.0069 44.6632 37.3876 44.3603 39.1373H43.3576C42.4336 39.1373 42.4336 40.5701 43.3576 40.5701H53.6427C54.5666 40.5701 54.5666 39.1373 53.6427 39.1373H52.6107C52.3125 37.4153 50.9597 36.0511 49.2434 35.7359V33.7116C51.1922 33.3711 52.6786 31.668 52.6786 29.6232V28.7449C53.5932 28.6219 54.3201 28.2545 54.8443 27.647C55.905 26.4176 55.6624 24.6845 55.6516 24.6114C55.5995 24.2602 55.298 24 54.9429 24H51.9621H51.9277H45.0917C45.0885 24 45.0854 24.0005 45.0822 24.0005C45.0789 24.0005 45.0759 24 45.0726 24H42.0574C41.7022 24 41.4008 24.2602 41.3487 24.6114C41.3379 24.6846 41.0954 26.4176 42.1561 27.647C42.6904 28.2665 43.4352 28.6369 44.3752 28.7525ZM51.1459 39.1374H45.8249C46.1411 37.9646 47.2141 37.0988 48.4855 37.0988C49.7568 37.0988 50.8298 37.9645 51.1459 39.1374ZM53.7593 26.7111C53.5066 27.0041 53.1444 27.1984 52.6785 27.2927V25.4328H54.2387C54.205 25.8234 54.0909 26.3267 53.7593 26.7111ZM45.808 25.4328H51.2457V27.9923C51.2426 28.0196 51.2405 28.0473 51.2405 28.0756C51.2405 28.1039 51.2425 28.1315 51.2457 28.1589V29.6233C51.2457 31.1224 50.0261 32.3421 48.5269 32.3421C47.0277 32.3421 45.808 31.1224 45.808 29.6233V25.4328ZM44.3752 25.4328V27.3027C43.8867 27.2133 43.5079 27.0177 43.2459 26.7169C42.9106 26.3322 42.7956 25.8255 42.7616 25.4328H44.3752Z" fill="black" fill-opacity="0.2"/>
<path d="M72.2365 71.5673H71.1301V62.1804C71.1301 61.1648 70.3041 60.3385 69.2887 60.3385H56.9622C56.786 60.3385 56.6161 60.3649 56.4547 60.4113V45.2865C56.4547 44.2708 55.6288 43.4446 54.6137 43.4446H42.2872C41.2721 43.4446 40.4463 44.2708 40.4463 45.2865V52.9013C40.3146 52.8714 40.1783 52.8541 40.0378 52.8541H27.7114C26.696 52.8541 25.87 53.6801 25.87 54.6956V60.296C25.87 61.22 27.3028 61.22 27.3028 60.296V54.6956C27.3028 54.4702 27.4861 54.2868 27.7114 54.2868H40.0377C40.263 54.2868 40.4462 54.4702 40.4462 54.6956V71.5673H27.3028V63.8302C27.3028 62.9063 25.87 62.9063 25.87 63.8302V71.5673H24.7636C24.3678 71.5673 24.0472 71.8879 24.0472 72.2837C24.0472 72.6794 24.3678 73.0001 24.7636 73.0001H72.2365C72.6323 73.0001 72.9529 72.6794 72.9529 72.2837C72.9529 71.8879 72.6322 71.5673 72.2365 71.5673ZM41.879 71.5673V54.6956V45.2865C41.879 45.061 42.0621 44.8774 42.2871 44.8774H54.6137C54.8387 44.8774 55.0219 45.061 55.0219 45.2865V71.5674H41.879V71.5673ZM56.5538 71.5673V62.1804C56.5538 61.9549 56.737 61.7713 56.9622 61.7713H69.2886C69.5139 61.7713 69.6973 61.9549 69.6973 62.1804V71.5673H56.5538Z" fill="#B69D74"/>
<path d="M72.2365 71.5673H71.1301V62.1804C71.1301 61.1648 70.3041 60.3385 69.2887 60.3385H56.9622C56.786 60.3385 56.6161 60.3649 56.4547 60.4113V45.2865C56.4547 44.2708 55.6288 43.4446 54.6137 43.4446H42.2872C41.2721 43.4446 40.4463 44.2708 40.4463 45.2865V52.9013C40.3146 52.8714 40.1783 52.8541 40.0378 52.8541H27.7114C26.696 52.8541 25.87 53.6801 25.87 54.6956V60.296C25.87 61.22 27.3028 61.22 27.3028 60.296V54.6956C27.3028 54.4702 27.4861 54.2868 27.7114 54.2868H40.0377C40.263 54.2868 40.4462 54.4702 40.4462 54.6956V71.5673H27.3028V63.8302C27.3028 62.9063 25.87 62.9063 25.87 63.8302V71.5673H24.7636C24.3678 71.5673 24.0472 71.8879 24.0472 72.2837C24.0472 72.6794 24.3678 73.0001 24.7636 73.0001H72.2365C72.6323 73.0001 72.9529 72.6794 72.9529 72.2837C72.9529 71.8879 72.6322 71.5673 72.2365 71.5673ZM41.879 71.5673V54.6956V45.2865C41.879 45.061 42.0621 44.8774 42.2871 44.8774H54.6137C54.8387 44.8774 55.0219 45.061 55.0219 45.2865V71.5674H41.879V71.5673ZM56.5538 71.5673V62.1804C56.5538 61.9549 56.737 61.7713 56.9622 61.7713H69.2886C69.5139 61.7713 69.6973 61.9549 69.6973 62.1804V71.5673H56.5538Z" fill="black" fill-opacity="0.2"/>
<circle cx="48" cy="48.0002" r="46.5" stroke="#B69D74" stroke-width="3"/>
<circle cx="48" cy="48.0002" r="46.5" stroke="black" stroke-opacity="0.2" stroke-width="3"/>
</svg>
