<svg width="96" height="96" viewBox="0 0 96 96" fill="none" xmlns="http://www.w3.org/2000/svg">
<g clip-path="url(#clip0)">
<path d="M50.5633 63.6667H49.8756V61.7982C49.8756 60.8427 49.0983 60.0654 48.1428 60.0654H30.5007C29.5452 60.0654 28.7679 60.8427 28.7679 61.7982V63.6667H28.0803C27.1248 63.6667 26.3475 64.444 26.3475 65.3995V67.0289C26.3475 67.9844 27.1248 68.7617 28.0803 68.7617H32.3498C32.745 68.7617 33.0652 68.4414 33.0652 68.0462C33.0652 67.651 32.7449 67.3307 32.3498 67.3307H28.0803C27.9138 67.3307 27.7784 67.1953 27.7784 67.0288V65.3994C27.7784 65.2329 27.9138 65.0975 28.0803 65.0975H50.5632C50.7297 65.0975 50.8651 65.2329 50.8651 65.3994V67.0288C50.8651 67.1953 50.7297 67.3307 50.5632 67.3307H35.6432C35.2481 67.3307 34.9278 67.651 34.9278 68.0462C34.9278 68.4414 35.2481 68.7617 35.6432 68.7617H50.5632C51.5187 68.7617 52.296 67.9844 52.296 67.0289V65.3995C52.2961 64.4441 51.5187 63.6667 50.5633 63.6667ZM48.4448 63.6667H30.1988V61.7982C30.1988 61.6317 30.3342 61.4963 30.5007 61.4963H48.1427C48.3093 61.4963 48.4447 61.6317 48.4447 61.7982V63.6667H48.4448Z" fill="#B69D74"/>
<path d="M50.5633 63.6667H49.8756V61.7982C49.8756 60.8427 49.0983 60.0654 48.1428 60.0654H30.5007C29.5452 60.0654 28.7679 60.8427 28.7679 61.7982V63.6667H28.0803C27.1248 63.6667 26.3475 64.444 26.3475 65.3995V67.0289C26.3475 67.9844 27.1248 68.7617 28.0803 68.7617H32.3498C32.745 68.7617 33.0652 68.4414 33.0652 68.0462C33.0652 67.651 32.7449 67.3307 32.3498 67.3307H28.0803C27.9138 67.3307 27.7784 67.1953 27.7784 67.0288V65.3994C27.7784 65.2329 27.9138 65.0975 28.0803 65.0975H50.5632C50.7297 65.0975 50.8651 65.2329 50.8651 65.3994V67.0288C50.8651 67.1953 50.7297 67.3307 50.5632 67.3307H35.6432C35.2481 67.3307 34.9278 67.651 34.9278 68.0462C34.9278 68.4414 35.2481 68.7617 35.6432 68.7617H50.5632C51.5187 68.7617 52.296 67.9844 52.296 67.0289V65.3995C52.2961 64.4441 51.5187 63.6667 50.5633 63.6667ZM48.4448 63.6667H30.1988V61.7982C30.1988 61.6317 30.3342 61.4963 30.5007 61.4963H48.1427C48.3093 61.4963 48.4447 61.6317 48.4447 61.7982V63.6667H48.4448Z" fill="black" fill-opacity="0.2"/>
<path d="M71.3665 62.0264C70.5821 61.2419 69.3406 61.1883 68.4922 61.8631L48.7313 42.1024C48.9856 41.6831 49.0036 41.16 48.7861 40.7255L52.2107 37.3008L52.236 37.3261C52.5049 37.595 52.8623 37.7431 53.2426 37.7431C53.6229 37.7431 53.9803 37.595 54.2493 37.3261L55.5297 36.0457C55.7986 35.7769 55.9467 35.4193 55.9467 35.0391C55.9467 34.6589 55.7986 34.3013 55.5297 34.0325L48.1522 26.655C47.8833 26.3861 47.5258 26.238 47.1455 26.238C46.7653 26.238 46.4077 26.3861 46.1389 26.655L44.8585 27.9353C44.5896 28.2043 44.4415 28.5617 44.4415 28.942C44.4415 29.3223 44.5896 29.6798 44.8585 29.9486L44.8838 29.9739L41.4591 33.3985C40.9258 33.1314 40.2586 33.2191 39.8144 33.6635L36.9016 36.5762C36.4573 37.0205 36.3697 37.6876 36.6367 38.2208L33.2121 41.6455L33.1867 41.6201C32.6317 41.0652 31.7286 41.0651 31.1735 41.6201L29.893 42.9005C29.338 43.4556 29.338 44.3588 29.893 44.9138L37.2706 52.2914C37.5481 52.5688 37.9126 52.7076 38.2772 52.7076C38.6417 52.7076 39.0063 52.5688 39.2839 52.2913L40.5643 51.0109C41.1194 50.4558 41.1194 49.5527 40.5643 48.9976L40.5389 48.9722L43.9636 45.5476C44.1638 45.6479 44.3825 45.699 44.6016 45.6989C44.8578 45.6989 45.1133 45.6288 45.3394 45.4918L65.1012 65.2537C64.7972 65.635 64.631 66.1037 64.631 66.5986C64.631 67.1764 64.8559 67.7196 65.2645 68.1281C65.6862 68.5497 66.2401 68.7606 66.7939 68.7606C67.3478 68.7606 67.9017 68.5497 68.3234 68.1281L71.3663 65.0851C71.7749 64.6766 71.9998 64.1334 71.9998 63.5557C71.9998 62.9779 71.775 62.435 71.3665 62.0264ZM47.1455 27.6719L54.5128 35.0392L53.2427 36.3094L45.8754 28.942L47.1455 27.6719ZM45.8955 30.9857L48.5473 33.6374L51.199 36.2892L47.8262 39.6618L42.5228 34.3584L45.8955 30.9857ZM38.2773 51.2746L30.91 43.9073L32.1801 42.6371L39.5474 50.0045L38.2773 51.2746ZM44.6017 44.2661L41.9205 41.5848C41.6411 41.3054 41.1881 41.3054 40.9087 41.5848C40.6293 41.8642 40.6293 42.3172 40.9087 42.5966L42.9001 44.588L39.5274 47.9607L34.2239 42.6573L37.5966 39.2846L38.5455 40.2335C38.8249 40.5128 39.2779 40.5128 39.5573 40.2335C39.8368 39.9541 39.8368 39.5011 39.5573 39.2217L37.9186 37.5829L40.8211 34.6804L47.5042 41.3636L44.6017 44.2661ZM46.3811 44.5103L47.7484 43.1429L67.4698 62.8643L66.7861 63.5479L66.1024 64.2315L46.3811 44.5103ZM70.3548 64.0735L67.3118 67.1165C67.0264 67.4019 66.5619 67.402 66.2764 67.1165C66.1381 66.9782 66.0619 66.7944 66.0619 66.5988C66.0619 66.4033 66.1381 66.2195 66.2764 66.0812L69.3194 63.0382C69.462 62.8955 69.6495 62.8241 69.837 62.8241C70.0245 62.8241 70.212 62.8955 70.3547 63.0382C70.6402 63.3237 70.6401 63.7881 70.3548 64.0735Z" fill="#B69D74"/>
<path d="M71.3665 62.0264C70.5821 61.2419 69.3406 61.1883 68.4922 61.8631L48.7313 42.1024C48.9856 41.6831 49.0036 41.16 48.7861 40.7255L52.2107 37.3008L52.236 37.3261C52.5049 37.595 52.8623 37.7431 53.2426 37.7431C53.6229 37.7431 53.9803 37.595 54.2493 37.3261L55.5297 36.0457C55.7986 35.7769 55.9467 35.4193 55.9467 35.0391C55.9467 34.6589 55.7986 34.3013 55.5297 34.0325L48.1522 26.655C47.8833 26.3861 47.5258 26.238 47.1455 26.238C46.7653 26.238 46.4077 26.3861 46.1389 26.655L44.8585 27.9353C44.5896 28.2043 44.4415 28.5617 44.4415 28.942C44.4415 29.3223 44.5896 29.6798 44.8585 29.9486L44.8838 29.9739L41.4591 33.3985C40.9258 33.1314 40.2586 33.2191 39.8144 33.6635L36.9016 36.5762C36.4573 37.0205 36.3697 37.6876 36.6367 38.2208L33.2121 41.6455L33.1867 41.6201C32.6317 41.0652 31.7286 41.0651 31.1735 41.6201L29.893 42.9005C29.338 43.4556 29.338 44.3588 29.893 44.9138L37.2706 52.2914C37.5481 52.5688 37.9126 52.7076 38.2772 52.7076C38.6417 52.7076 39.0063 52.5688 39.2839 52.2913L40.5643 51.0109C41.1194 50.4558 41.1194 49.5527 40.5643 48.9976L40.5389 48.9722L43.9636 45.5476C44.1638 45.6479 44.3825 45.699 44.6016 45.6989C44.8578 45.6989 45.1133 45.6288 45.3394 45.4918L65.1012 65.2537C64.7972 65.635 64.631 66.1037 64.631 66.5986C64.631 67.1764 64.8559 67.7196 65.2645 68.1281C65.6862 68.5497 66.2401 68.7606 66.7939 68.7606C67.3478 68.7606 67.9017 68.5497 68.3234 68.1281L71.3663 65.0851C71.7749 64.6766 71.9998 64.1334 71.9998 63.5557C71.9998 62.9779 71.775 62.435 71.3665 62.0264ZM47.1455 27.6719L54.5128 35.0392L53.2427 36.3094L45.8754 28.942L47.1455 27.6719ZM45.8955 30.9857L48.5473 33.6374L51.199 36.2892L47.8262 39.6618L42.5228 34.3584L45.8955 30.9857ZM38.2773 51.2746L30.91 43.9073L32.1801 42.6371L39.5474 50.0045L38.2773 51.2746ZM44.6017 44.2661L41.9205 41.5848C41.6411 41.3054 41.1881 41.3054 40.9087 41.5848C40.6293 41.8642 40.6293 42.3172 40.9087 42.5966L42.9001 44.588L39.5274 47.9607L34.2239 42.6573L37.5966 39.2846L38.5455 40.2335C38.8249 40.5128 39.2779 40.5128 39.5573 40.2335C39.8368 39.9541 39.8368 39.5011 39.5573 39.2217L37.9186 37.5829L40.8211 34.6804L47.5042 41.3636L44.6017 44.2661ZM46.3811 44.5103L47.7484 43.1429L67.4698 62.8643L66.7861 63.5479L66.1024 64.2315L46.3811 44.5103ZM70.3548 64.0735L67.3118 67.1165C67.0264 67.4019 66.5619 67.402 66.2764 67.1165C66.1381 66.9782 66.0619 66.7944 66.0619 66.5988C66.0619 66.4033 66.1381 66.2195 66.2764 66.0812L69.3194 63.0382C69.462 62.8955 69.6495 62.8241 69.837 62.8241C70.0245 62.8241 70.212 62.8955 70.3547 63.0382C70.6402 63.3237 70.6401 63.7881 70.3548 64.0735Z" fill="black" fill-opacity="0.2"/>
<path d="M28.147 40.886C28.2867 41.0257 28.4698 41.0956 28.6529 41.0956C28.836 41.0956 29.019 41.0257 29.1588 40.886C29.4382 40.6066 29.4382 40.1536 29.1588 39.8742L27.2617 37.9772C26.9824 37.6977 26.5294 37.6977 26.25 37.9772C25.9705 38.2565 25.9705 38.7095 26.25 38.9889L28.147 40.886Z" fill="#B69D74"/>
<path d="M28.147 40.886C28.2867 41.0257 28.4698 41.0956 28.6529 41.0956C28.836 41.0956 29.019 41.0257 29.1588 40.886C29.4382 40.6066 29.4382 40.1536 29.1588 39.8742L27.2617 37.9772C26.9824 37.6977 26.5294 37.6977 26.25 37.9772C25.9705 38.2565 25.9705 38.7095 26.25 38.9889L28.147 40.886Z" fill="black" fill-opacity="0.2"/>
<path d="M27.0443 43.6474C27.1237 43.2603 26.8744 42.8821 26.4873 42.8027L23.8593 42.2633C23.4726 42.1838 23.0941 42.4333 23.0146 42.8203C22.9352 43.2073 23.1845 43.5855 23.5716 43.665L26.1996 44.2044C26.2482 44.2143 26.2965 44.2191 26.3442 44.2191C26.6769 44.2191 26.9749 43.9859 27.0443 43.6474Z" fill="#B69D74"/>
<path d="M27.0443 43.6474C27.1237 43.2603 26.8744 42.8821 26.4873 42.8027L23.8593 42.2633C23.4726 42.1838 23.0941 42.4333 23.0146 42.8203C22.9352 43.2073 23.1845 43.5855 23.5716 43.665L26.1996 44.2044C26.2482 44.2143 26.2965 44.2191 26.3442 44.2191C26.6769 44.2191 26.9749 43.9859 27.0443 43.6474Z" fill="black" fill-opacity="0.2"/>
<path d="M31.0756 38.2145C31.1451 38.5531 31.443 38.7862 31.7757 38.7862C31.8233 38.7862 31.8718 38.7815 31.9203 38.7715C32.3073 38.6921 32.5567 38.314 32.4773 37.9268L31.9379 35.2988C31.8586 34.9118 31.4802 34.6623 31.0932 34.7418C30.7062 34.8213 30.4568 35.1994 30.5362 35.5864L31.0756 38.2145Z" fill="#B69D74"/>
<path d="M31.0756 38.2145C31.1451 38.5531 31.443 38.7862 31.7757 38.7862C31.8233 38.7862 31.8718 38.7815 31.9203 38.7715C32.3073 38.6921 32.5567 38.314 32.4773 37.9268L31.9379 35.2988C31.8586 34.9118 31.4802 34.6623 31.0932 34.7418C30.7062 34.8213 30.4568 35.1994 30.5362 35.5864L31.0756 38.2145Z" fill="black" fill-opacity="0.2"/>
</g>
<circle cx="48" cy="48.0002" r="46.5" stroke="#B69D74" stroke-width="3"/>
<circle cx="48" cy="48.0002" r="46.5" stroke="black" stroke-opacity="0.2" stroke-width="3"/>
<defs>
<clipPath id="clip0">
<rect width="49" height="49" fill="white" transform="translate(23 23)"/>
</clipPath>
</defs>
</svg>
