<svg width="96" height="96" viewBox="0 0 96 96" fill="none" xmlns="http://www.w3.org/2000/svg">
<g clip-path="url(#clip0)">
<path d="M38.5446 26.4129C38.149 26.4129 37.8282 26.7336 37.8282 27.1293C37.8282 27.5249 38.149 27.8456 38.5446 27.8456C38.9402 27.8456 39.261 27.5249 39.261 27.1293C39.261 26.7336 38.9402 26.4129 38.5446 26.4129ZM41.4102 26.4129C41.0145 26.4129 40.6938 26.7336 40.6938 27.1293C40.6938 27.5249 41.0145 27.8456 41.4102 27.8456C41.8058 27.8456 42.1265 27.5249 42.1265 27.1293C42.1265 26.7336 41.8058 26.4129 41.4102 26.4129ZM35.679 26.4129C35.2834 26.4129 34.9626 26.7336 34.9626 27.1293C34.9626 27.5249 35.2834 27.8456 35.679 27.8456C36.0747 27.8456 36.3954 27.5249 36.3954 27.1293C36.3954 26.7336 36.0747 26.4129 35.679 26.4129ZM69.5101 26.4129H63.9029V25.4099C63.9029 24.3829 63.0673 23.5474 62.0403 23.5474H33.9597C32.9327 23.5474 32.0971 24.3829 32.0971 25.4099V27.6584H27.1291C25.154 27.6584 23.5472 29.2652 23.5472 31.2403V58.2163C23.5472 60.1914 25.154 61.7982 27.1291 61.7982H43.8816L43.336 65.8533H42.5378C41.8748 65.8533 41.2881 66.2995 41.111 66.9381L40.1021 70.5759C39.9773 71.0255 40.0678 71.4964 40.3502 71.8678C40.6325 72.2391 41.0622 72.4521 41.5288 72.4521H54.4712C54.9378 72.4521 55.3675 72.2391 55.6498 71.8678C55.9322 71.4964 56.0226 71.0255 55.898 70.576L54.889 66.9383C54.7119 66.2995 54.1253 65.8533 53.4622 65.8533H52.664L52.1184 61.7982H68.8709C70.846 61.7982 72.4528 60.1914 72.4528 58.2163V29.3555C72.4528 27.7329 71.1327 26.4129 69.5101 26.4129ZM33.5299 30.7112H45.1344C45.5302 30.7112 45.8508 30.3904 45.8508 29.9948C45.8508 29.5991 45.5302 29.2784 45.1344 29.2784H33.5299V25.4099C33.5299 25.173 33.7227 24.9801 33.9597 24.9801H62.0403C62.2773 24.9801 62.4701 25.173 62.4701 25.4099V26.4129H57.7479C56.1511 26.4129 54.8484 27.6914 54.8072 29.2784H48.4776C48.0819 29.2784 47.7612 29.5991 47.7612 29.9948C47.7612 30.3904 48.0819 30.7112 48.4776 30.7112H54.8052V34.4303C54.8052 36.0529 56.1252 37.3729 57.7479 37.3729H59.1674V38.7475C59.1674 39.1587 59.4129 39.5261 59.7929 39.6836C60.1689 39.8393 60.6047 39.7564 60.8972 39.464L62.4702 37.891V49.0724C62.4702 49.468 62.7909 49.7888 63.1866 49.7888C63.5824 49.7888 63.903 49.468 63.903 49.0724V37.3729H68.1545V56.0671H63.9029V52.4155C63.9029 52.0199 63.5823 51.6991 63.1865 51.6991C62.7908 51.6991 62.4701 52.0199 62.4701 52.4155V56.067H56.845V51.83C56.845 49.8898 55.6784 48.1774 53.8732 47.4678L51.9378 46.7065C51.4432 46.512 51.1236 46.0429 51.1236 45.5115V44.7018C52.3263 43.7676 53.1025 42.3089 53.1025 40.6715V35.3223C53.1025 33.6621 51.7517 32.3113 50.0915 32.3113H45.9088C44.2485 32.3113 42.8978 33.6622 42.8978 35.3223V40.6715C42.8978 42.3088 43.674 43.7676 44.8767 44.7018V45.5115C44.8767 46.0429 44.557 46.512 44.0623 46.7065L42.1273 47.4677C40.3219 48.1774 39.1552 49.8898 39.1552 51.83V56.0671H33.5299V30.7112ZM51.8303 53.3697C51.4346 53.3697 51.1139 53.6905 51.1139 54.0861V56.0671H44.8861V54.0861C44.8861 53.6905 44.5654 53.3697 44.1697 53.3697C43.774 53.3697 43.4533 53.6905 43.4533 54.0861V56.0671H40.5877V51.83C40.5877 50.4828 41.3976 49.2939 42.6514 48.8011L44.4137 48.1079C45.368 49.0439 46.647 49.5717 47.9999 49.5717C49.3528 49.5717 50.6318 49.0439 51.5862 48.1079L53.3486 48.8011C54.6022 49.2939 55.4122 50.4828 55.4122 51.83V56.0671H52.5466V54.0861C52.5467 53.6905 52.2259 53.3697 51.8303 53.3697ZM44.8671 39.58C45.8743 39.58 46.8703 39.4109 47.802 39.0778C48.3414 38.8848 48.8622 38.6372 49.3554 38.339C49.6129 38.6291 49.97 38.9361 50.45 39.168C50.8856 39.3784 51.3076 39.4695 51.6697 39.5007V40.6716C51.6697 42.695 50.0236 44.3412 48.0001 44.3412C45.9766 44.3412 44.3305 42.695 44.3305 40.6716V39.5625C44.5095 39.5731 44.6885 39.58 44.8671 39.58ZM44.3304 38.1275V35.3223C44.3304 34.4521 45.0383 33.7441 45.9086 33.7441H50.0913C50.9616 33.7441 51.6695 34.4522 51.6695 35.3223V38.0598C51.4857 38.0329 51.2819 37.9788 51.0729 37.8778C50.6451 37.6712 50.3817 37.3615 50.236 37.1382C50.104 36.9356 49.8921 36.7923 49.6549 36.7452C49.4165 36.698 49.1651 36.7496 48.9645 36.8869C48.4518 37.2384 47.8983 37.5216 47.3193 37.7287C46.3779 38.0653 45.3554 38.2002 44.3304 38.1275ZM50.353 47.291C49.6962 47.8353 48.8695 48.1389 48 48.1389C47.1305 48.1389 46.3038 47.8353 45.647 47.291C46.0657 46.8088 46.3093 46.1845 46.3093 45.5116V45.4848C46.8388 45.6713 47.4075 45.7739 48 45.7739C48.5925 45.7739 49.1612 45.6713 49.6907 45.4848V45.5116C49.6907 46.1845 49.9343 46.8088 50.353 47.291ZM53.4623 67.2861C53.4837 67.2861 53.5026 67.3004 53.5083 67.321V67.3211L54.5173 70.9589C54.5263 70.982 54.496 71.0221 54.4712 71.0194H41.5288C41.5039 71.022 41.4734 70.9823 41.4828 70.9588L42.4918 67.3209C42.4975 67.3003 42.5165 67.286 42.5378 67.286H53.4623V67.2861ZM44.7816 65.8533L45.3272 61.7982H50.6727L51.2183 65.8533H44.7816ZM71.02 58.2163C71.02 59.4014 70.0559 60.3654 68.8709 60.3654H27.1291C25.9441 60.3654 24.98 59.4014 24.98 58.2163V31.2403C24.98 30.0552 25.9441 29.0912 27.1291 29.0912H32.0971V30.5239H27.5112C26.9055 30.5239 26.4127 31.0167 26.4127 31.6224V56.4014C26.4127 57.0071 26.9055 57.4999 27.5112 57.4999H68.4888C69.0945 57.4999 69.5873 57.0071 69.5873 56.4014V37.371C70.1098 37.3574 70.599 37.2077 71.02 36.9549V58.2163ZM32.0971 31.9567V56.0671H27.8455V31.9567H32.0971ZM71.02 34.4303C71.02 35.2628 70.3427 35.9401 69.5101 35.9401C68.7107 35.9401 63.7126 35.9401 62.9065 35.9401C62.5764 35.9401 62.2659 36.0687 62.0327 36.3022L60.6002 37.7347V37.176C60.6002 36.4946 60.0458 35.9402 59.3644 35.9402H57.7479C56.9153 35.9402 56.238 35.2629 56.238 34.4304V29.3556C56.238 28.523 56.9153 27.8457 57.7479 27.8457H69.5102C70.3427 27.8456 71.02 28.5229 71.02 29.3555V34.4303ZM68.4951 32.6093H58.7629C58.3671 32.6093 58.0465 32.93 58.0465 33.3256C58.0465 33.7213 58.3671 34.042 58.7629 34.042H68.4952C68.8909 34.042 69.2116 33.7213 69.2116 33.3256C69.2116 32.93 68.8908 32.6093 68.4951 32.6093ZM68.4951 29.7438H58.7629C58.3671 29.7438 58.0465 30.0645 58.0465 30.4601C58.0465 30.8558 58.3671 31.1765 58.7629 31.1765H68.4952C68.8909 31.1765 69.2116 30.8558 69.2116 30.4601C69.2116 30.0645 68.8908 29.7438 68.4951 29.7438Z" fill="#B69D74"/>
<path d="M38.5446 26.4129C38.149 26.4129 37.8282 26.7336 37.8282 27.1293C37.8282 27.5249 38.149 27.8456 38.5446 27.8456C38.9402 27.8456 39.261 27.5249 39.261 27.1293C39.261 26.7336 38.9402 26.4129 38.5446 26.4129ZM41.4102 26.4129C41.0145 26.4129 40.6938 26.7336 40.6938 27.1293C40.6938 27.5249 41.0145 27.8456 41.4102 27.8456C41.8058 27.8456 42.1265 27.5249 42.1265 27.1293C42.1265 26.7336 41.8058 26.4129 41.4102 26.4129ZM35.679 26.4129C35.2834 26.4129 34.9626 26.7336 34.9626 27.1293C34.9626 27.5249 35.2834 27.8456 35.679 27.8456C36.0747 27.8456 36.3954 27.5249 36.3954 27.1293C36.3954 26.7336 36.0747 26.4129 35.679 26.4129ZM69.5101 26.4129H63.9029V25.4099C63.9029 24.3829 63.0673 23.5474 62.0403 23.5474H33.9597C32.9327 23.5474 32.0971 24.3829 32.0971 25.4099V27.6584H27.1291C25.154 27.6584 23.5472 29.2652 23.5472 31.2403V58.2163C23.5472 60.1914 25.154 61.7982 27.1291 61.7982H43.8816L43.336 65.8533H42.5378C41.8748 65.8533 41.2881 66.2995 41.111 66.9381L40.1021 70.5759C39.9773 71.0255 40.0678 71.4964 40.3502 71.8678C40.6325 72.2391 41.0622 72.4521 41.5288 72.4521H54.4712C54.9378 72.4521 55.3675 72.2391 55.6498 71.8678C55.9322 71.4964 56.0226 71.0255 55.898 70.576L54.889 66.9383C54.7119 66.2995 54.1253 65.8533 53.4622 65.8533H52.664L52.1184 61.7982H68.8709C70.846 61.7982 72.4528 60.1914 72.4528 58.2163V29.3555C72.4528 27.7329 71.1327 26.4129 69.5101 26.4129ZM33.5299 30.7112H45.1344C45.5302 30.7112 45.8508 30.3904 45.8508 29.9948C45.8508 29.5991 45.5302 29.2784 45.1344 29.2784H33.5299V25.4099C33.5299 25.173 33.7227 24.9801 33.9597 24.9801H62.0403C62.2773 24.9801 62.4701 25.173 62.4701 25.4099V26.4129H57.7479C56.1511 26.4129 54.8484 27.6914 54.8072 29.2784H48.4776C48.0819 29.2784 47.7612 29.5991 47.7612 29.9948C47.7612 30.3904 48.0819 30.7112 48.4776 30.7112H54.8052V34.4303C54.8052 36.0529 56.1252 37.3729 57.7479 37.3729H59.1674V38.7475C59.1674 39.1587 59.4129 39.5261 59.7929 39.6836C60.1689 39.8393 60.6047 39.7564 60.8972 39.464L62.4702 37.891V49.0724C62.4702 49.468 62.7909 49.7888 63.1866 49.7888C63.5824 49.7888 63.903 49.468 63.903 49.0724V37.3729H68.1545V56.0671H63.9029V52.4155C63.9029 52.0199 63.5823 51.6991 63.1865 51.6991C62.7908 51.6991 62.4701 52.0199 62.4701 52.4155V56.067H56.845V51.83C56.845 49.8898 55.6784 48.1774 53.8732 47.4678L51.9378 46.7065C51.4432 46.512 51.1236 46.0429 51.1236 45.5115V44.7018C52.3263 43.7676 53.1025 42.3089 53.1025 40.6715V35.3223C53.1025 33.6621 51.7517 32.3113 50.0915 32.3113H45.9088C44.2485 32.3113 42.8978 33.6622 42.8978 35.3223V40.6715C42.8978 42.3088 43.674 43.7676 44.8767 44.7018V45.5115C44.8767 46.0429 44.557 46.512 44.0623 46.7065L42.1273 47.4677C40.3219 48.1774 39.1552 49.8898 39.1552 51.83V56.0671H33.5299V30.7112ZM51.8303 53.3697C51.4346 53.3697 51.1139 53.6905 51.1139 54.0861V56.0671H44.8861V54.0861C44.8861 53.6905 44.5654 53.3697 44.1697 53.3697C43.774 53.3697 43.4533 53.6905 43.4533 54.0861V56.0671H40.5877V51.83C40.5877 50.4828 41.3976 49.2939 42.6514 48.8011L44.4137 48.1079C45.368 49.0439 46.647 49.5717 47.9999 49.5717C49.3528 49.5717 50.6318 49.0439 51.5862 48.1079L53.3486 48.8011C54.6022 49.2939 55.4122 50.4828 55.4122 51.83V56.0671H52.5466V54.0861C52.5467 53.6905 52.2259 53.3697 51.8303 53.3697ZM44.8671 39.58C45.8743 39.58 46.8703 39.4109 47.802 39.0778C48.3414 38.8848 48.8622 38.6372 49.3554 38.339C49.6129 38.6291 49.97 38.9361 50.45 39.168C50.8856 39.3784 51.3076 39.4695 51.6697 39.5007V40.6716C51.6697 42.695 50.0236 44.3412 48.0001 44.3412C45.9766 44.3412 44.3305 42.695 44.3305 40.6716V39.5625C44.5095 39.5731 44.6885 39.58 44.8671 39.58ZM44.3304 38.1275V35.3223C44.3304 34.4521 45.0383 33.7441 45.9086 33.7441H50.0913C50.9616 33.7441 51.6695 34.4522 51.6695 35.3223V38.0598C51.4857 38.0329 51.2819 37.9788 51.0729 37.8778C50.6451 37.6712 50.3817 37.3615 50.236 37.1382C50.104 36.9356 49.8921 36.7923 49.6549 36.7452C49.4165 36.698 49.1651 36.7496 48.9645 36.8869C48.4518 37.2384 47.8983 37.5216 47.3193 37.7287C46.3779 38.0653 45.3554 38.2002 44.3304 38.1275ZM50.353 47.291C49.6962 47.8353 48.8695 48.1389 48 48.1389C47.1305 48.1389 46.3038 47.8353 45.647 47.291C46.0657 46.8088 46.3093 46.1845 46.3093 45.5116V45.4848C46.8388 45.6713 47.4075 45.7739 48 45.7739C48.5925 45.7739 49.1612 45.6713 49.6907 45.4848V45.5116C49.6907 46.1845 49.9343 46.8088 50.353 47.291ZM53.4623 67.2861C53.4837 67.2861 53.5026 67.3004 53.5083 67.321V67.3211L54.5173 70.9589C54.5263 70.982 54.496 71.0221 54.4712 71.0194H41.5288C41.5039 71.022 41.4734 70.9823 41.4828 70.9588L42.4918 67.3209C42.4975 67.3003 42.5165 67.286 42.5378 67.286H53.4623V67.2861ZM44.7816 65.8533L45.3272 61.7982H50.6727L51.2183 65.8533H44.7816ZM71.02 58.2163C71.02 59.4014 70.0559 60.3654 68.8709 60.3654H27.1291C25.9441 60.3654 24.98 59.4014 24.98 58.2163V31.2403C24.98 30.0552 25.9441 29.0912 27.1291 29.0912H32.0971V30.5239H27.5112C26.9055 30.5239 26.4127 31.0167 26.4127 31.6224V56.4014C26.4127 57.0071 26.9055 57.4999 27.5112 57.4999H68.4888C69.0945 57.4999 69.5873 57.0071 69.5873 56.4014V37.371C70.1098 37.3574 70.599 37.2077 71.02 36.9549V58.2163ZM32.0971 31.9567V56.0671H27.8455V31.9567H32.0971ZM71.02 34.4303C71.02 35.2628 70.3427 35.9401 69.5101 35.9401C68.7107 35.9401 63.7126 35.9401 62.9065 35.9401C62.5764 35.9401 62.2659 36.0687 62.0327 36.3022L60.6002 37.7347V37.176C60.6002 36.4946 60.0458 35.9402 59.3644 35.9402H57.7479C56.9153 35.9402 56.238 35.2629 56.238 34.4304V29.3556C56.238 28.523 56.9153 27.8457 57.7479 27.8457H69.5102C70.3427 27.8456 71.02 28.5229 71.02 29.3555V34.4303ZM68.4951 32.6093H58.7629C58.3671 32.6093 58.0465 32.93 58.0465 33.3256C58.0465 33.7213 58.3671 34.042 58.7629 34.042H68.4952C68.8909 34.042 69.2116 33.7213 69.2116 33.3256C69.2116 32.93 68.8908 32.6093 68.4951 32.6093ZM68.4951 29.7438H58.7629C58.3671 29.7438 58.0465 30.0645 58.0465 30.4601C58.0465 30.8558 58.3671 31.1765 58.7629 31.1765H68.4952C68.8909 31.1765 69.2116 30.8558 69.2116 30.4601C69.2116 30.0645 68.8908 29.7438 68.4951 29.7438Z" fill="black" fill-opacity="0.2"/>
</g>
<circle cx="48" cy="48.0002" r="46.5" stroke="#B69D74" stroke-width="3"/>
<circle cx="48" cy="48.0002" r="46.5" stroke="black" stroke-opacity="0.2" stroke-width="3"/>
<defs>
<clipPath id="clip0">
<rect width="48.9056" height="48.9048" fill="white" transform="translate(23.5472 23.5474)"/>
</clipPath>
</defs>
</svg>
